<?xml version="1.0" encoding="utf-8"?>
<!-- Generator: Adobe Illustrator 24.2.1, SVG Export Plug-In . SVG Version: 6.00 Build 0)  -->
<svg version="1.1" id="Layer_1" xmlns="http://www.w3.org/2000/svg" xmlns:xlink="http://www.w3.org/1999/xlink" x="0px" y="0px"
	 viewBox="0 0 536 376.7" style="enable-background:new 0 0 536 376.7;" xml:space="preserve">
<style type="text/css">
	.st0{fill:#E8EAF6;}
	.st1{filter:url(#Adobe_OpacityMaskFilter);}
	.st2{fill-rule:evenodd;clip-rule:evenodd;fill:#FFFFFF;}
	.st3{mask:url(#b_1_);}
	.st4{fill-rule:evenodd;clip-rule:evenodd;fill:#242A45;}
	.st5{opacity:0.245;fill-rule:evenodd;clip-rule:evenodd;fill:#FFFFFF;enable-background:new    ;}
	.st6{opacity:0.104;fill-rule:evenodd;clip-rule:evenodd;fill:#FFFFFF;enable-background:new    ;}
	.st7{opacity:0.75;fill-rule:evenodd;clip-rule:evenodd;fill:#FFFFFF;enable-background:new    ;}
	.st8{opacity:0.25;fill-rule:evenodd;clip-rule:evenodd;fill:#FFFFFF;enable-background:new    ;}
	.st9{filter:url(#Adobe_OpacityMaskFilter_1_);}
	.st10{mask:url(#b_2_);}
	.st11{opacity:0.5;fill-rule:evenodd;clip-rule:evenodd;fill:#242A45;enable-background:new    ;}
	.st12{fill-rule:evenodd;clip-rule:evenodd;fill:#F98E5D;}
	.st13{opacity:0.25;fill-rule:evenodd;clip-rule:evenodd;fill:#242A45;enable-background:new    ;}
	.st14{fill-rule:evenodd;clip-rule:evenodd;fill:#6AC6D6;}
	.st15{fill-rule:evenodd;clip-rule:evenodd;fill:#A47ED4;}
	.st16{fill-rule:evenodd;clip-rule:evenodd;fill:#EC7878;}
</style>
<g>
	<g>
		<path id="a_1_" class="st0" d="M8,0h520c4.4,0,8,3.9,8,8.7v358.2c0,4.8-3.6,8.7-8,8.7H8c-4.4,0-8-3.9-8-8.7V8.7C0,3.9,3.6,0,8,0z"
			/>
	</g>
	<defs>
		<filter id="Adobe_OpacityMaskFilter" filterUnits="userSpaceOnUse" x="-3.5" y="0.2" width="547" height="64">
			<feColorMatrix  type="matrix" values="1 0 0 0 0  0 1 0 0 0  0 0 1 0 0  0 0 0 1 0"/>
		</filter>
	</defs>
	<mask maskUnits="userSpaceOnUse" x="-3.5" y="0.2" width="547" height="64" id="b_1_">
		<g class="st1">
			<path id="a_2_" class="st2" d="M8,0h520c4.4,0,8,3.9,8,8.7v358.2c0,4.8-3.6,8.7-8,8.7H8c-4.4,0-8-3.9-8-8.7V8.7C0,3.9,3.6,0,8,0z
				"/>
		</g>
	</mask>
	<g class="st3">
		<path class="st4" d="M-3.5,0.2h547v64h-547L-3.5,0.2z"/>
		<g transform="translate(22.47 14.197)">
			<ellipse class="st5" cx="16" cy="18.6" rx="16" ry="17.4"/>
			<ellipse class="st6" cx="477" cy="18.6" rx="16" ry="17.4"/>
			<g transform="translate(47 6)">
				<path class="st7" d="M3,1.7h114c1.7,0,3,1.5,3,3.3l0,0c0,1.8-1.3,3.3-3,3.3H3C1.3,8.2,0,6.8,0,5l0,0C0,3.2,1.3,1.7,3,1.7z"/>
				<path class="st8" d="M3,16.9h58c1.7,0,3,1.5,3,3.3l0,0c0,1.8-1.3,3.3-3,3.3H3c-1.7,0-3-1.5-3-3.3l0,0C0,18.4,1.3,16.9,3,16.9z"
					/>
			</g>
		</g>
	</g>
	<defs>
		<filter id="Adobe_OpacityMaskFilter_1_" filterUnits="userSpaceOnUse" x="57" y="101" width="423" height="343">
			<feColorMatrix  type="matrix" values="1 0 0 0 0  0 1 0 0 0  0 0 1 0 0  0 0 0 1 0"/>
		</filter>
	</defs>
	<mask maskUnits="userSpaceOnUse" x="57" y="101" width="423" height="343" id="b_2_">
		<g class="st9">
			<path id="a_3_" class="st2" d="M8,0h520c4.4,0,8,3.9,8,8.7v358.2c0,4.8-3.6,8.7-8,8.7H8c-4.4,0-8-3.9-8-8.7V8.7C0,3.9,3.6,0,8,0z
				"/>
		</g>
	</mask>
	<g class="st10">
		<g transform="translate(57 93)">
			<path class="st2" d="M8,8h245c4.4,0,8,3.9,8,8.7v325.7c0,4.8-3.6,8.7-8,8.7H8c-4.4,0-8-3.9-8-8.7V16.6C0,11.8,3.6,8,8,8z"/>
			<path class="st2" d="M303,8h112c4.4,0,8,3.9,8,8.7v325.7c0,4.8-3.6,8.7-8,8.7H303c-4.4,0-8-3.9-8-8.7V16.6
				C295,11.8,298.6,8,303,8z"/>
			<path class="st11" d="M81.5,49.4h114c1.7,0,3,1.5,3,3.3l0,0c0,1.8-1.3,3.3-3,3.3h-114c-1.7,0-3-1.5-3-3.3l0,0
				C78.5,50.9,79.8,49.4,81.5,49.4z"/>
		</g>
	</g>
	<g transform="translate(88.47 115.197)">
		<ellipse class="st12" cx="16" cy="38.1" rx="16" ry="17.4"/>
		<path class="st13" d="M287,9.9h82c1.7,0,3,1.5,3,3.3l0,0c0,1.8-1.3,3.3-3,3.3h-82c-1.7,0-3-1.5-3-3.3l0,0
			C284,11.3,285.3,9.9,287,9.9z"/>
		<path class="st13" d="M287,31.6h82c1.7,0,3,1.5,3,3.3l0,0c0,1.8-1.3,3.3-3,3.3h-82c-1.7,0-3-1.5-3-3.3l0,0
			C284,33,285.3,31.6,287,31.6z"/>
		<path class="st13" d="M287,53.3h82c1.7,0,3,1.5,3,3.3l0,0c0,1.8-1.3,3.3-3,3.3h-82c-1.7,0-3-1.5-3-3.3l0,0
			C284,54.7,285.3,53.3,287,53.3z"/>
		<path class="st13" d="M287,75h82c1.7,0,3,1.5,3,3.3l0,0c0,1.8-1.3,3.3-3,3.3h-82c-1.7,0-3-1.5-3-3.3l0,0C284,76.5,285.3,75,287,75
			z"/>
		<path class="st13" d="M287,111.9h82c1.7,0,3,1.5,3,3.3l0,0c0,1.8-1.3,3.3-3,3.3h-82c-1.7,0-3-1.5-3-3.3l0,0
			C284,113.4,285.3,111.9,287,111.9z"/>
		<path class="st13" d="M287,133.6h82c1.7,0,3,1.5,3,3.3l0,0c0,1.8-1.3,3.3-3,3.3h-82c-1.7,0-3-1.5-3-3.3l0,0
			C284,135.1,285.3,133.6,287,133.6z"/>
		<path class="st13" d="M287,155.3h82c1.7,0,3,1.5,3,3.3l0,0c0,1.8-1.3,3.3-3,3.3h-82c-1.7,0-3-1.5-3-3.3l0,0
			C284,156.8,285.3,155.3,287,155.3z"/>
		<path class="st13" d="M50,42.4h58c1.7,0,3,1.5,3,3.3l0,0c0,1.8-1.3,3.3-3,3.3H50c-1.7,0-3-1.5-3-3.3l0,0
			C47,43.9,48.3,42.4,50,42.4z"/>
	</g>
	<g transform="translate(88.47 181.197)">
		<ellipse class="st14" cx="16" cy="32.9" rx="16" ry="17.4"/>
		<path class="st11" d="M50,22h114c1.7,0,3,1.5,3,3.3l0,0c0,1.8-1.3,3.3-3,3.3H50c-1.7,0-3-1.5-3-3.3l0,0C47,23.5,48.3,22,50,22z"/>
		<path class="st13" d="M50,37.2h58c1.7,0,3,1.5,3,3.3l0,0c0,1.8-1.3,3.3-3,3.3H50c-1.7,0-3-1.5-3-3.3l0,0
			C47,38.7,48.3,37.2,50,37.2z"/>
	</g>
	<g transform="translate(88.47 237.197)">
		<ellipse class="st15" cx="16" cy="37.7" rx="16" ry="17.4"/>
		<path class="st11" d="M50,26.8h114c1.7,0,3,1.5,3,3.3l0,0c0,1.8-1.3,3.3-3,3.3H50c-1.7,0-3-1.5-3-3.3l0,0
			C47,28.3,48.3,26.8,50,26.8z"/>
		<path class="st13" d="M50,42h58c1.7,0,3,1.5,3,3.3l0,0c0,1.8-1.3,3.3-3,3.3H50c-1.7,0-3-1.5-3-3.3l0,0C47,43.5,48.3,42,50,42z"/>
	</g>
	<g transform="translate(88.47 293.197)">
		<ellipse class="st16" cx="16" cy="42.5" rx="16" ry="17.4"/>
		<path class="st11" d="M50,31.6h114c1.7,0,3,1.5,3,3.3l0,0c0,1.8-1.3,3.3-3,3.3H50c-1.7,0-3-1.5-3-3.3l0,0
			C47,33.1,48.3,31.6,50,31.6z"/>
		<path class="st13" d="M50,46.8h58c1.7,0,3,1.5,3,3.3l0,0c0,1.8-1.3,3.3-3,3.3H50c-1.7,0-3-1.5-3-3.3l0,0
			C47,48.3,48.3,46.8,50,46.8z"/>
	</g>
</g>
</svg>
